<svg width="20" height="10" viewBox="0 0 20 10" fill="none" xmlns="http://www.w3.org/2000/svg">
<path fill-rule="evenodd" clip-rule="evenodd" d="M0 0.613361C0 0.457019 0.0614567 0.299655 0.183331 0.1801C0.427078 -0.0600332 0.822905 -0.0600332 1.06665 0.1801L9.70508 8.65423C9.86758 8.81262 10.1322 8.81262 10.2947 8.65423L18.9331 0.1801C19.1768 -0.0600332 19.5727 -0.0600332 19.8164 0.1801C20.0612 0.419211 20.0612 0.807511 19.8164 1.04662L11.178 9.52076C10.8634 9.83037 10.4447 10 9.99987 10C9.55508 10 9.13634 9.83037 8.82176 9.52076L0.183331 1.04662C0.0614567 0.927066 0 0.769702 0 0.613361Z" fill="white"/>
</svg>
