<svg width="18" height="26" viewBox="0 0 18 26" fill="none" xmlns="http://www.w3.org/2000/svg">
<path fill-rule="evenodd" clip-rule="evenodd" d="M9.0006 16.2988C4.82596 16.2988 1.43124 12.9573 1.43124 8.85211C1.43124 4.7458 4.82596 1.4043 9.0006 1.4043C13.1752 1.4043 16.5711 4.7458 16.5711 8.85211C16.5711 12.9573 13.1752 16.2988 9.0006 16.2988ZM18 8.85211C18 3.97045 13.9635 0 9.0006 0C4.03771 0 0 3.97045 0 8.85211C0 13.496 3.65668 17.3165 8.28617 17.6761V20.4472H4.78309C4.38897 20.4472 4.06747 20.7623 4.06747 21.15C4.06747 21.5376 4.38897 21.8515 4.78309 21.8515H8.28617V25.2984C8.28617 25.6861 8.60528 26 9.0006 26C9.39591 26 9.71502 25.6861 9.71502 25.2984V21.8515H13.2181C13.6122 21.8515 13.9325 21.5376 13.9325 21.15C13.9325 20.7623 13.6122 20.4472 13.2181 20.4472H9.71502V17.6761C14.3445 17.3165 18 13.496 18 8.85211Z" fill="#77C585"/>
</svg>
