<svg width="21" height="42" viewBox="0 0 21 42" fill="none" xmlns="http://www.w3.org/2000/svg">
<path fill-rule="evenodd" clip-rule="evenodd" d="M19.7119 42C20.0403 42 20.3707 41.8709 20.6218 41.615C21.1261 41.1031 21.1261 40.2719 20.6218 39.76L2.82611 21.6193C2.4935 21.2781 2.4935 20.7225 2.82611 20.3812L20.6218 2.24052C21.1261 1.72865 21.1261 0.89741 20.6218 0.385542C20.1197 -0.128514 19.3042 -0.128514 18.8021 0.385542L1.00641 18.5262C0.356215 19.1869 0 20.0662 0 21.0003C0 21.9343 0.356215 22.8137 1.00641 23.4743L18.8021 41.615C19.0532 41.8709 19.3836 42 19.7119 42Z" fill="white"/>
</svg>
