<svg width="33" height="33" viewBox="0 0 33 33" fill="none" xmlns="http://www.w3.org/2000/svg">
<path fill-rule="evenodd" clip-rule="evenodd" d="M15.8276 21.1755C12.9311 21.1755 10.6035 18.8849 10.6035 16.0852C10.6035 13.2855 12.9828 10.9949 15.8276 10.9949C18.7242 10.9949 21.0518 13.2855 21.0518 16.0852C21.0518 18.8849 18.7242 21.1755 15.8276 21.1755ZM15.8276 8.0425C11.2759 8.0425 7.55176 11.6566 7.55176 16.0852C7.55176 20.5138 11.2759 24.1284 15.8276 24.1284C20.3793 24.1284 24.1035 20.5138 24.1035 16.0852C24.1035 11.6566 20.3793 8.0425 15.8276 8.0425Z" fill="white"/>
<mask id="mask0" mask-type="alpha" maskUnits="userSpaceOnUse" x="0" y="0" width="32" height="32">
<path fill-rule="evenodd" clip-rule="evenodd" d="M0 0.509033H31.6033V31.7635H0V0.509033Z" fill="white"/>
</mask>
<g mask="url(#mask0)">
<path fill-rule="evenodd" clip-rule="evenodd" d="M28.6034 22.8045C28.6034 26.1132 25.8621 28.8111 22.5 28.8111H9.10345C5.74138 28.8111 3 26.1132 3 22.8045V9.46788C3 6.15917 5.74138 3.46131 9.10345 3.46131H22.5C25.8621 3.46131 28.6034 6.15917 28.6034 9.46788V22.8045ZM22.5 0.508926H9.10345C4.08621 0.508926 0 4.53027 0 9.46788V22.8045C0 27.7421 4.08621 31.764 9.10345 31.764H22.5C27.5172 31.764 31.6034 27.7421 31.6034 22.8045V9.46788C31.6034 4.53027 27.5172 0.508926 22.5 0.508926Z" fill="white"/>
</g>
<path fill-rule="evenodd" clip-rule="evenodd" d="M24.259 5.75195C25.3447 5.75195 26.2245 6.61832 26.2245 7.68627C26.2245 8.75473 25.3447 9.62059 24.259 9.62059C23.1733 9.62059 22.293 8.75473 22.293 7.68627C22.293 6.61832 23.1733 5.75195 24.259 5.75195Z" fill="white"/>
</svg>
