<svg width="24" height="24" viewBox="0 0 24 24" fill="none" xmlns="http://www.w3.org/2000/svg">
<path opacity="0.503139" fill-rule="evenodd" clip-rule="evenodd" d="M14.0649 20.4077C12.6652 21.8059 10.8068 22.5757 8.82965 22.5757C6.85127 22.5757 4.99171 21.8059 3.59317 20.4065C2.19583 19.0095 1.42467 17.1515 1.42467 15.1736C1.42467 13.1969 2.19583 11.3377 3.59317 9.93833C5.03686 8.49735 6.93326 7.77508 8.82965 7.77508C10.7237 7.77508 12.6213 8.49735 14.0638 9.93833C16.9511 12.8262 16.9511 17.521 14.0649 20.4077ZM23.8392 0.266099C23.8238 0.245904 23.8072 0.228085 23.7905 0.210266C23.6562 0.0760283 23.4744 0 23.2843 0H15.8758C15.4825 0 15.164 0.319557 15.164 0.712765C15.164 1.10597 15.4825 1.42553 15.8758 1.42553H21.5733L14.5486 8.44865C11.0837 5.4978 5.85792 5.65936 2.58675 8.93214C0.918493 10.5988 0 12.8155 0 15.1736C0 17.5317 0.918493 19.7484 2.58556 21.415C4.25264 23.0829 6.46985 24 8.82965 24C11.1871 24 13.4043 23.0829 15.0726 21.415C18.3461 18.1434 18.5053 12.9212 15.5562 9.45483L22.556 2.45666L22.5096 8.05187C22.5061 8.44508 22.8233 8.76702 23.2166 8.76939H23.2225C23.6135 8.76939 23.9331 8.45459 23.9355 8.06256L23.9949 0.799485C24.0175 0.612978 23.9652 0.419344 23.8392 0.266099Z" fill="white"/>
</svg>
