<svg width="33" height="33" viewBox="0 0 33 33" fill="none" xmlns="http://www.w3.org/2000/svg">
<mask id="mask0" mask-type="alpha" maskUnits="userSpaceOnUse" x="0" y="0" width="33" height="32">
<path fill-rule="evenodd" clip-rule="evenodd" d="M0.207031 0.317505H32.1463V31.6244H0.207031V0.317505Z" fill="white"/>
</mask>
<g mask="url(#mask0)">
<path fill-rule="evenodd" clip-rule="evenodd" d="M25.182 7.58856L21.5863 24.0676C21.5216 24.3851 21.1328 24.5438 20.8737 24.3851L15.3669 20.7972L12.4839 23.4325C12.2248 23.6548 11.8361 23.5278 11.7065 23.242L9.82804 17.4315L4.77443 15.3994C4.38572 15.2407 4.38572 14.6056 4.77443 14.4786L24.5341 7.11229C24.8907 6.92178 25.2467 7.23929 25.182 7.58856ZM16.1767 0.317474C7.36586 0.317474 0.207031 7.33455 0.207031 15.9709C0.207031 24.6073 7.36586 31.6244 16.1767 31.6244C24.9876 31.6244 32.1464 24.6073 32.1464 15.9709C32.1464 7.33455 24.9876 0.317474 16.1767 0.317474Z" fill="white"/>
</g>
<path fill-rule="evenodd" clip-rule="evenodd" d="M12.3219 21.4958L12.6135 18.5112L21.5539 9.97002L10.7671 16.8918L12.3219 21.4958Z" fill="white"/>
</svg>
