<svg width="33" height="33" viewBox="0 0 33 33" fill="none" xmlns="http://www.w3.org/2000/svg">
<path fill-rule="evenodd" clip-rule="evenodd" d="M16.1642 28.861H16.159C13.8095 28.86 11.5042 28.2286 9.49387 27.0352L9.01546 26.7513L4.05897 28.0519L5.38168 23.2195L5.07045 22.7232C3.75983 20.6382 3.06746 18.2288 3.06851 15.7543C3.07114 8.53403 8.94659 2.66067 16.1695 2.66067C19.6666 2.66172 22.9544 4.02597 25.4269 6.50106C27.8993 8.97616 29.2599 12.2661 29.2589 15.7648C29.2562 22.9861 23.3818 28.861 16.1642 28.861ZM27.309 4.62056C24.3344 1.64235 20.3789 0.00105144 16.1637 0C7.47983 0 0.411515 7.06674 0.408361 15.7537C0.407309 18.5311 1.1328 21.2417 2.51124 23.6306L0.275879 31.7945L8.62853 29.6039C10.9291 30.8598 13.5204 31.5212 16.1569 31.5222H16.1632C24.847 31.5222 31.9148 24.4534 31.919 15.7674C31.9216 11.5564 30.284 7.59877 27.309 4.62056Z" fill="white"/>
<path fill-rule="evenodd" clip-rule="evenodd" d="M23.3473 19.0531C22.9536 18.8559 21.0184 17.9033 20.6572 17.7719C20.2966 17.6404 20.0337 17.5747 19.7714 17.969C19.509 18.3633 18.7552 19.2502 18.5249 19.5131C18.2957 19.7759 18.0654 19.8085 17.6722 19.6114C17.2784 19.4142 16.0098 18.9984 14.5063 17.6573C13.336 16.6127 12.5459 15.3241 12.3161 14.9304C12.0864 14.5361 12.2914 14.3232 12.4886 14.1271C12.6657 13.9504 12.8823 13.6671 13.0789 13.4373C13.2756 13.2076 13.3413 13.043 13.4727 12.7807C13.6041 12.5178 13.5384 12.2881 13.4401 12.0909C13.3418 11.8938 12.5543 9.95599 12.2262 9.16793C11.9066 8.40038 11.5822 8.50447 11.3404 8.49238C11.1112 8.48082 10.8483 8.47871 10.586 8.47871C10.3236 8.47871 9.89729 8.57702 9.53612 8.97131C9.17547 9.3656 8.1582 10.3177 8.1582 12.2555C8.1582 14.1933 9.56871 16.0649 9.76586 16.3272C9.96248 16.5901 12.5417 20.5666 16.4909 22.272C17.4303 22.6779 18.1637 22.9192 18.7357 23.1011C19.6783 23.4008 20.5363 23.3582 21.215 23.2572C21.9715 23.1442 23.5439 22.3052 23.872 21.3857C24.2 20.4662 24.2 19.6771 24.1023 19.5136C24.0034 19.3485 23.7411 19.2502 23.3473 19.0531Z" fill="white"/>
</svg>
