<svg width="35" height="20" viewBox="0 0 35 20" fill="none" xmlns="http://www.w3.org/2000/svg">
<mask id="mask0" mask-type="alpha" maskUnits="userSpaceOnUse" x="0" y="0" width="35" height="20">
<path fill-rule="evenodd" clip-rule="evenodd" d="M0.0688477 0.207108H34.1098V19.6237H0.0688477V0.207108Z" fill="white"/>
</mask>
<g mask="url(#mask0)">
<path fill-rule="evenodd" clip-rule="evenodd" d="M33.8964 17.7416C33.8442 17.6381 33.793 17.5859 33.793 17.5347C33.2235 16.4485 32.0861 15.1554 30.4309 13.6037L30.3787 13.5514C29.6028 12.8278 29.1378 12.3623 28.9304 12.1037C28.5683 11.6376 28.4654 11.1726 28.6718 10.6554C28.827 10.2933 29.3442 9.51745 30.2757 8.3278C30.7407 7.70711 31.1545 7.18987 31.4132 6.82728C33.4309 4.13814 34.3614 2.37952 34.0516 1.60366L33.9482 1.44849C33.8964 1.34504 33.6895 1.24159 33.3792 1.13762C33.0683 1.03469 32.7063 1.03469 32.2413 1.08642L27.1201 1.13762H26.758C26.6551 1.13762 26.5516 1.18987 26.5516 1.18987C26.4994 1.18987 26.4994 1.24159 26.4482 1.24159L26.3964 1.29331C26.3442 1.34504 26.293 1.39625 26.1895 1.50021C26.1378 1.60366 26.0344 1.70711 26.0344 1.81056C25.4649 3.25883 24.8447 4.55194 24.1206 5.7928C23.7068 6.51745 23.293 7.13814 22.9309 7.70711C22.5688 8.22435 22.2585 8.63762 21.9999 8.89625C21.7413 9.15487 21.5344 9.36228 21.327 9.51745C21.1206 9.67211 20.9654 9.72435 20.862 9.72435C20.7585 9.72435 20.6545 9.67211 20.5511 9.67211C20.3959 9.56918 20.2413 9.41349 20.1373 9.25883C20.0338 9.05194 19.9826 8.84504 19.9309 8.58642C19.8787 8.3278 19.8787 8.06918 19.8787 7.86176V7.03469V6.31004C19.8787 5.84504 19.8787 5.37952 19.9309 4.86228C19.9309 4.34504 19.9826 3.93125 19.9826 3.6209V2.63814C19.9826 2.27607 19.9826 2.01745 19.9309 1.81056C19.8787 1.60366 19.8275 1.44849 19.724 1.24159C19.6201 1.03469 19.5166 0.931245 19.3614 0.827797C19.2068 0.724349 18.9994 0.672625 18.793 0.569176C18.1723 0.310556 17.3964 0.207108 16.4137 0.207108C14.2413 0.207108 12.793 0.310556 12.1723 0.620383C11.9137 0.776073 11.7068 0.931246 11.4999 1.13762C11.293 1.39625 11.2413 1.55194 11.3964 1.55194C12.1201 1.65487 12.5861 1.91349 12.8959 2.3278L12.9999 2.53469C13.1033 2.68935 13.1545 2.94797 13.2585 3.36228C13.362 3.77607 13.4132 4.18987 13.4132 4.65538C13.4654 5.53418 13.4654 6.25883 13.4132 6.87952C13.362 7.50021 13.3102 7.96573 13.2585 8.3278C13.2068 8.68987 13.1033 8.94849 12.9999 9.15487C12.8959 9.36228 12.8447 9.51745 12.793 9.56918C12.7413 9.6209 12.7413 9.6209 12.6895 9.67211C12.5344 9.72435 12.3787 9.77607 12.224 9.77607C12.0688 9.77607 11.8614 9.67211 11.6028 9.51745C11.3442 9.36228 11.1378 9.10366 10.8792 8.84504C10.6206 8.53469 10.362 8.17263 9.99988 7.65538C9.68954 7.13814 9.32747 6.51745 9.01661 5.7928L8.75799 5.27556L8.03436 3.8278C7.7235 3.20659 7.46488 2.58642 7.20626 2.01745C7.10333 1.75883 6.94764 1.60366 6.79299 1.44849L6.68902 1.39625C6.63781 1.34504 6.53436 1.29331 6.4304 1.24159C6.27574 1.18987 6.17178 1.13762 6.01712 1.13762L1.20678 1.08642C0.689537 1.08642 0.379193 1.18987 0.172296 1.44849L0.120572 1.55194C0.0688477 1.60366 0.0688477 1.70711 0.0688477 1.81056C0.0688477 1.96573 0.120572 2.1209 0.172296 2.27607C0.896434 3.93125 1.6723 5.53418 2.49988 7.0859C3.32695 8.63762 4.05161 9.87952 4.6723 10.8106C5.29299 11.7411 5.91316 12.6209 6.53436 13.5002C7.15505 14.3795 7.56885 14.8968 7.77574 15.1031C7.98212 15.3618 8.13781 15.5169 8.24074 15.6204L8.70678 16.0342C8.9654 16.2928 9.43092 16.6549 9.94816 17.0687C10.5171 17.483 11.0856 17.8445 11.7585 18.2588C12.4309 18.6204 13.2068 18.9312 14.0861 19.1899C14.9649 19.4485 15.8447 19.5519 16.6723 19.4997H18.6895C19.1028 19.4485 19.4137 19.345 19.6201 19.0864L19.6723 18.9825C19.724 18.9312 19.7752 18.8278 19.8275 18.6726C19.8787 18.5175 19.8787 18.3618 19.8787 18.2066C19.8787 17.6894 19.9309 17.2243 19.9826 16.81C20.0861 16.3962 20.1895 16.0864 20.2925 15.879C20.3959 15.6726 20.5511 15.5169 20.6545 15.3618C20.8097 15.2071 20.9132 15.1554 20.9654 15.1031C21.0171 15.0519 21.0683 15.0519 21.1206 15.0519C21.3792 14.9485 21.7413 15.0519 22.1028 15.3106C22.4649 15.5692 22.8275 15.9312 23.1895 16.345C23.5516 16.7588 23.9132 17.2243 24.3792 17.7416C24.8447 18.2588 25.2585 18.6204 25.6206 18.879L25.9821 19.0864C26.2407 19.2411 26.4994 19.345 26.9137 19.4997C27.2752 19.6037 27.6373 19.6549 27.8959 19.6037L32.4476 19.5519C32.9137 19.5519 33.2235 19.4997 33.4821 19.345C33.7407 19.1899 33.8964 19.0347 33.9482 18.879C33.9994 18.7238 33.9994 18.5175 33.9482 18.2588C33.9482 17.948 33.8964 17.7933 33.8964 17.7416Z" fill="white"/>
</g>
</svg>
